# xmcd
#
# Track frame offsets: 
#        150
#        11547
#        29105
#        45117
#        60995
#        81127
#        95037
#        112212
#        128352
#        143772
#        157255
#        172647
#        189042
#        201995
#
# Disc length: 2909 seconds
#
# Revision: 0
# Processed by: cddbd v1.5PL3 Copyright (c) Steve Scherf et al.
# Submitted via: ExactAudioCopy v0.95a3
#
DISCID=ae0b5b0e
DTITLE=Various Artist - Best Of Country Music CD-1
DYEAR=2000
DGENRE=Country
TTITLE0=Wade Hayes - When The Wrong One Loves You Right
TTITLE1=Dixie Chicks - I Can Love You Better
TTITLE2=The Kinleys - Just Between You And Me
TTITLE3=Rick Trvino - Learning As You Go
TTITLE4=Mary Chapin Carpenter - I Feel Lucky
TTITLE5=Collin Raye - That's my Story
TTITLE6=Joe Diffie - Honky Tonk Attitude
TTITLE7=Patty Loveless - Blame It On Your Heart
TTITLE8=Rosanne Cash - Rose In The Fire
TTITLE9=Charlie Daniels - Layla
TTITLE10=Dolly Parton - Country Road
TTITLE11=O'Kanes - Climbing Mountains
TTITLE12=Charly McClain - Band Of Gold
TTITLE13=Exile - Kiss You All Over
EXTD=
EXTT0=
EXTT1=
EXTT2=
EXTT3=
EXTT4=
EXTT5=
EXTT6=
EXTT7=
EXTT8=
EXTT9=
EXTT10=
EXTT11=
EXTT12=
EXTT13=
PLAYORDER=
